<svg width="457" height="426" viewBox="0 0 457 426" fill="none" xmlns="http://www.w3.org/2000/svg">
<path d="M456.515 252C463.515 369 276.515 403 181.515 425.5C23.5148 417.5 -19.4854 258.909 7.51477 199C33.5148 65.5 240.515 -4.9591e-05 305.515 0C388.015 29.5 456.515 184 456.515 252Z" fill="#EBEBEB"/>
<path d="M449.825 210.247C456.247 307.861 284.686 336.228 197.529 355C52.5734 348.326 13.1234 216.011 37.8943 166.028C61.7478 54.6475 251.658 -4.13744e-05 311.291 0C386.98 24.6122 449.825 153.514 449.825 210.247Z" fill="white"/>
<path d="M97.8525 223.231C93.7744 225.534 89.0723 226.686 83.7461 226.686C77.6465 226.686 72.7686 224.831 69.1123 221.122C65.4561 217.413 63.6279 212.421 63.6279 206.146C63.6279 199.8 65.6494 194.605 69.6924 190.562C73.7529 186.502 78.9736 184.472 85.3545 184.472C89.749 184.472 93.5107 185.148 96.6396 186.502V192.988C93.4229 191.002 89.5293 190.009 84.959 190.009C80.6523 190.009 77.1279 191.459 74.3857 194.359C71.6436 197.26 70.2725 201.065 70.2725 205.776C70.2725 210.628 71.5293 214.416 74.043 217.141C76.5742 219.848 79.9932 221.201 84.2998 221.201C87.1475 221.201 89.5469 220.674 91.498 219.619V209.389H82.8232V204.01H97.8525V223.231ZM129.44 226H106.817V185.157H128.518V190.589H113.146V202.612H127.41V208.018H113.146V220.568H129.44V226ZM162.61 190.589H150.877V226H144.522V190.589H132.815V185.157H162.61V190.589ZM187.817 234.464H163.612V231.062H187.817V234.464ZM224.521 223.231C220.442 225.534 215.74 226.686 210.414 226.686C204.314 226.686 199.437 224.831 195.78 221.122C192.124 217.413 190.296 212.421 190.296 206.146C190.296 199.8 192.317 194.605 196.36 190.562C200.421 186.502 205.642 184.472 212.022 184.472C216.417 184.472 220.179 185.148 223.308 186.502V192.988C220.091 191.002 216.197 190.009 211.627 190.009C207.32 190.009 203.796 191.459 201.054 194.359C198.312 197.26 196.94 201.065 196.94 205.776C196.94 210.628 198.197 214.416 200.711 217.141C203.242 219.848 206.661 221.201 210.968 221.201C213.815 221.201 216.215 220.674 218.166 219.619V209.389H209.491V204.01H224.521V223.231ZM264.493 226H257.084L250.439 214.873C249.139 212.693 247.952 211.208 246.88 210.417C245.825 209.626 244.612 209.23 243.241 209.23H239.813V226H233.485V185.157H246.484C250.721 185.157 253.99 186.115 256.293 188.031C258.613 189.93 259.773 192.628 259.773 196.126C259.773 198.868 258.974 201.215 257.374 203.166C255.774 205.117 253.542 206.479 250.677 207.253V207.358C252.505 207.991 254.553 210.136 256.82 213.792L264.493 226ZM239.813 190.378V203.983H245.43C247.768 203.983 249.631 203.307 251.02 201.953C252.426 200.6 253.129 198.877 253.129 196.785C253.129 192.514 250.598 190.378 245.535 190.378H239.813ZM302.62 226H295.659L291.836 215.374H275.488L271.85 226H264.889L280.287 185.157H287.327L302.62 226ZM290.069 210.127L284.374 194.017C284.163 193.437 283.952 192.408 283.741 190.932H283.557C283.398 192.145 283.179 193.155 282.897 193.964L277.229 210.127H290.069ZM314.644 211.05V226H308.315V185.157H320.655C325.278 185.157 328.82 186.229 331.281 188.374C333.742 190.501 334.973 193.595 334.973 197.655C334.973 201.751 333.505 205.047 330.569 207.543C327.634 210.021 324.004 211.19 319.68 211.05H314.644ZM314.644 190.457V205.776H319.179C325.278 205.776 328.328 203.157 328.328 197.919C328.328 192.944 325.401 190.457 319.548 190.457H314.644ZM374.418 226H368.09V208.07H348.446V226H342.118V185.157H348.446V202.507H368.09V185.157H374.418V226Z" fill="#E980F4"/>
<path d="M382.513 222.941C382.513 221.869 382.899 220.981 383.673 220.278C384.446 219.575 385.369 219.224 386.441 219.224C387.496 219.224 388.41 219.575 389.184 220.278C389.957 220.964 390.344 221.852 390.344 222.941C390.344 223.961 389.975 224.84 389.236 225.578C388.498 226.299 387.549 226.659 386.389 226.659C385.316 226.659 384.402 226.308 383.646 225.604C382.891 224.884 382.513 223.996 382.513 222.941ZM396.276 222.941C396.276 221.869 396.663 220.981 397.437 220.278C398.21 219.575 399.133 219.224 400.205 219.224C401.26 219.224 402.174 219.575 402.947 220.278C403.721 220.964 404.107 221.852 404.107 222.941C404.107 223.961 403.738 224.84 403 225.578C402.262 226.299 401.312 226.659 400.152 226.659C399.08 226.659 398.166 226.308 397.41 225.604C396.654 224.884 396.276 223.996 396.276 222.941ZM410.04 222.941C410.04 221.869 410.427 220.981 411.2 220.278C411.974 219.575 412.896 219.224 413.969 219.224C415.023 219.224 415.938 219.575 416.711 220.278C417.484 220.964 417.871 221.852 417.871 222.941C417.871 223.961 417.502 224.84 416.764 225.578C416.025 226.299 415.076 226.659 413.916 226.659C412.844 226.659 411.93 226.308 411.174 225.604C410.418 224.884 410.04 223.996 410.04 222.941Z" fill="white"/>
<path d="M97.8525 223.231L99.8193 226.715L101.853 225.566V223.231H97.8525ZM96.6396 186.502H100.64V183.874L98.2278 182.831L96.6396 186.502ZM96.6396 192.988L94.5381 196.392L100.64 200.159V192.988H96.6396ZM74.043 217.141L71.103 219.853L71.1121 219.863L71.1213 219.873L74.043 217.141ZM91.498 219.619L93.4001 223.138L95.498 222.004V219.619H91.498ZM91.498 209.389H95.498V205.389H91.498V209.389ZM82.8232 209.389H78.8232V213.389H82.8232V209.389ZM82.8232 204.01V200.01H78.8232V204.01H82.8232ZM97.8525 204.01H101.853V200.01H97.8525V204.01ZM95.8858 219.748C92.4862 221.668 88.4792 222.686 83.7461 222.686V230.686C89.6654 230.686 95.0626 229.4 99.8193 226.715L95.8858 219.748ZM83.7461 222.686C78.5192 222.686 74.7369 221.13 71.9609 218.314L66.2637 223.93C70.8002 228.532 76.7738 230.686 83.7461 230.686V222.686ZM71.9609 218.314C69.1894 215.502 67.6279 211.6 67.6279 206.146H59.6279C59.6279 213.242 61.7227 219.324 66.2637 223.93L71.9609 218.314ZM67.6279 206.146C67.6279 200.733 69.3137 196.598 72.5208 193.391L66.864 187.734C61.9851 192.613 59.6279 198.867 59.6279 206.146H67.6279ZM72.5208 193.391C75.7445 190.167 79.9053 188.472 85.3545 188.472V180.472C78.042 180.472 71.7613 182.837 66.864 187.734L72.5208 193.391ZM85.3545 188.472C89.3541 188.472 92.5464 189.089 95.0515 190.173L98.2278 182.831C94.4751 181.207 90.144 180.472 85.3545 180.472V188.472ZM92.6396 186.502V192.988H100.64V186.502H92.6396ZM98.7412 189.585C94.7722 187.134 90.1158 186.009 84.959 186.009V194.009C88.9428 194.009 92.0735 194.87 94.5381 196.392L98.7412 189.585ZM84.959 186.009C79.6494 186.009 75.0409 187.844 71.4792 191.611L77.2923 197.107C79.2149 195.074 81.6553 194.009 84.959 194.009V186.009ZM71.4792 191.611C67.9105 195.386 66.2725 200.24 66.2725 205.776H74.2725C74.2725 201.891 75.3766 199.134 77.2923 197.107L71.4792 191.611ZM66.2725 205.776C66.2725 211.314 67.7186 216.185 71.103 219.853L76.9829 214.428C75.34 212.647 74.2725 209.942 74.2725 205.776H66.2725ZM71.1213 219.873C74.5332 223.521 79.0818 225.201 84.2998 225.201V217.201C80.9045 217.201 78.6153 216.174 76.9647 214.409L71.1213 219.873ZM84.2998 225.201C87.6279 225.201 90.722 224.586 93.4001 223.138L89.596 216.1C88.3717 216.762 86.667 217.201 84.2998 217.201V225.201ZM95.498 219.619V209.389H87.498V219.619H95.498ZM91.498 205.389H82.8232V213.389H91.498V205.389ZM86.8232 209.389V204.01H78.8232V209.389H86.8232ZM82.8232 208.01H97.8525V200.01H82.8232V208.01ZM93.8525 204.01V223.231H101.853V204.01H93.8525ZM129.44 226V230H133.44V226H129.44ZM106.817 226H102.817V230H106.817V226ZM106.817 185.157V181.157H102.817V185.157H106.817ZM128.518 185.157H132.518V181.157H128.518V185.157ZM128.518 190.589V194.589H132.518V190.589H128.518ZM113.146 190.589V186.589H109.146V190.589H113.146ZM113.146 202.612H109.146V206.612H113.146V202.612ZM127.41 202.612H131.41V198.612H127.41V202.612ZM127.41 208.018V212.018H131.41V208.018H127.41ZM113.146 208.018V204.018H109.146V208.018H113.146ZM113.146 220.568H109.146V224.568H113.146V220.568ZM129.44 220.568H133.44V216.568H129.44V220.568ZM129.44 222H106.817V230H129.44V222ZM110.817 226V185.157H102.817V226H110.817ZM106.817 189.157H128.518V181.157H106.817V189.157ZM124.518 185.157V190.589H132.518V185.157H124.518ZM128.518 186.589H113.146V194.589H128.518V186.589ZM109.146 190.589V202.612H117.146V190.589H109.146ZM113.146 206.612H127.41V198.612H113.146V206.612ZM123.41 202.612V208.018H131.41V202.612H123.41ZM127.41 204.018H113.146V212.018H127.41V204.018ZM109.146 208.018V220.568H117.146V208.018H109.146ZM113.146 224.568H129.44V216.568H113.146V224.568ZM125.44 220.568V226H133.44V220.568H125.44ZM162.61 190.589V194.589H166.61V190.589H162.61ZM150.877 190.589V186.589H146.877V190.589H150.877ZM150.877 226V230H154.877V226H150.877ZM144.522 226H140.522V230H144.522V226ZM144.522 190.589H148.522V186.589H144.522V190.589ZM132.815 190.589H128.815V194.589H132.815V190.589ZM132.815 185.157V181.157H128.815V185.157H132.815ZM162.61 185.157H166.61V181.157H162.61V185.157ZM162.61 186.589H150.877V194.589H162.61V186.589ZM146.877 190.589V226H154.877V190.589H146.877ZM150.877 222H144.522V230H150.877V222ZM148.522 226V190.589H140.522V226H148.522ZM144.522 186.589H132.815V194.589H144.522V186.589ZM136.815 190.589V185.157H128.815V190.589H136.815ZM132.815 189.157H162.61V181.157H132.815V189.157ZM158.61 185.157V190.589H166.61V185.157H158.61ZM187.817 234.464V238.464H191.817V234.464H187.817ZM163.612 234.464H159.612V238.464H163.612V234.464ZM163.612 231.062V227.062H159.612V231.062H163.612ZM187.817 231.062H191.817V227.062H187.817V231.062ZM187.817 230.464H163.612V238.464H187.817V230.464ZM167.612 234.464V231.062H159.612V234.464H167.612ZM163.612 235.062H187.817V227.062H163.612V235.062ZM183.817 231.062V234.464H191.817V231.062H183.817ZM224.521 223.231L226.487 226.715L228.521 225.566V223.231H224.521ZM223.308 186.502H227.308V183.874L224.896 182.831L223.308 186.502ZM223.308 192.988L221.206 196.392L227.308 200.159V192.988H223.308ZM200.711 217.141L197.771 219.853L197.78 219.863L197.789 219.873L200.711 217.141ZM218.166 219.619L220.068 223.138L222.166 222.004V219.619H218.166ZM218.166 209.389H222.166V205.389H218.166V209.389ZM209.491 209.389H205.491V213.389H209.491V209.389ZM209.491 204.01V200.01H205.491V204.01H209.491ZM224.521 204.01H228.521V200.01H224.521V204.01ZM222.554 219.748C219.154 221.668 215.147 222.686 210.414 222.686V230.686C216.333 230.686 221.731 229.4 226.487 226.715L222.554 219.748ZM210.414 222.686C205.187 222.686 201.405 221.13 198.629 218.314L192.932 223.93C197.468 228.532 203.442 230.686 210.414 230.686V222.686ZM198.629 218.314C195.857 215.502 194.296 211.6 194.296 206.146H186.296C186.296 213.242 188.391 219.324 192.932 223.93L198.629 218.314ZM194.296 206.146C194.296 200.733 195.982 196.598 199.189 193.391L193.532 187.734C188.653 192.613 186.296 198.867 186.296 206.146H194.296ZM199.189 193.391C202.413 190.167 206.573 188.472 212.022 188.472V180.472C204.71 180.472 198.429 182.837 193.532 187.734L199.189 193.391ZM212.022 188.472C216.022 188.472 219.214 189.089 221.719 190.173L224.896 182.831C221.143 181.207 216.812 180.472 212.022 180.472V188.472ZM219.308 186.502V192.988H227.308V186.502H219.308ZM225.409 189.585C221.44 187.134 216.784 186.009 211.627 186.009V194.009C215.611 194.009 218.741 194.87 221.206 196.392L225.409 189.585ZM211.627 186.009C206.317 186.009 201.709 187.844 198.147 191.611L203.96 197.107C205.883 195.074 208.323 194.009 211.627 194.009V186.009ZM198.147 191.611C194.578 195.386 192.94 200.24 192.94 205.776H200.94C200.94 201.891 202.045 199.134 203.96 197.107L198.147 191.611ZM192.94 205.776C192.94 211.314 194.387 216.185 197.771 219.853L203.651 214.428C202.008 212.647 200.94 209.942 200.94 205.776H192.94ZM197.789 219.873C201.201 223.521 205.75 225.201 210.968 225.201V217.201C207.572 217.201 205.283 216.174 203.633 214.409L197.789 219.873ZM210.968 225.201C214.296 225.201 217.39 224.586 220.068 223.138L216.264 216.1C215.04 216.762 213.335 217.201 210.968 217.201V225.201ZM222.166 219.619V209.389H214.166V219.619H222.166ZM218.166 205.389H209.491V213.389H218.166V205.389ZM213.491 209.389V204.01H205.491V209.389H213.491ZM209.491 208.01H224.521V200.01H209.491V208.01ZM220.521 204.01V223.231H228.521V204.01H220.521ZM264.493 226V230H271.732L267.88 223.871L264.493 226ZM257.084 226L253.65 228.051L254.814 230H257.084V226ZM250.439 214.873L247.005 216.923L247.005 216.924L250.439 214.873ZM246.88 210.417L244.48 213.617L244.493 213.626L244.505 213.636L246.88 210.417ZM239.813 209.23V205.23H235.813V209.23H239.813ZM239.813 226V230H243.813V226H239.813ZM233.485 226H229.485V230H233.485V226ZM233.485 185.157V181.157H229.485V185.157H233.485ZM256.293 188.031L253.735 191.106L253.747 191.117L253.76 191.127L256.293 188.031ZM250.677 207.253L249.634 203.391L246.677 204.19V207.253H250.677ZM250.677 207.358H246.677V210.207L249.368 211.138L250.677 207.358ZM256.82 213.792L253.421 215.9L253.427 215.91L253.434 215.921L256.82 213.792ZM239.813 190.378V186.378H235.813V190.378H239.813ZM239.813 203.983H235.813V207.983H239.813V203.983ZM251.02 201.953L248.246 199.071L248.237 199.08L248.228 199.089L251.02 201.953ZM264.493 222H257.084V230H264.493V222ZM260.518 223.949L253.874 212.822L247.005 216.924L253.65 228.051L260.518 223.949ZM253.874 212.823C252.503 210.525 250.986 208.475 249.254 207.198L244.505 213.636C244.919 213.941 245.775 214.862 247.005 216.923L253.874 212.823ZM249.28 207.217C247.504 205.885 245.441 205.23 243.241 205.23V213.23C243.784 213.23 244.147 213.367 244.48 213.617L249.28 207.217ZM243.241 205.23H239.813V213.23H243.241V205.23ZM235.813 209.23V226H243.813V209.23H235.813ZM239.813 222H233.485V230H239.813V222ZM237.485 226V185.157H229.485V226H237.485ZM233.485 189.157H246.484V181.157H233.485V189.157ZM246.484 189.157C250.167 189.157 252.397 189.993 253.735 191.106L258.851 184.956C255.583 182.237 251.274 181.157 246.484 181.157V189.157ZM253.76 191.127C254.992 192.135 255.773 193.604 255.773 196.126H263.773C263.773 191.652 262.235 187.725 258.826 184.935L253.76 191.127ZM255.773 196.126C255.773 198.029 255.242 199.458 254.281 200.63L260.467 205.702C262.706 202.972 263.773 199.707 263.773 196.126H255.773ZM254.281 200.63C253.298 201.828 251.84 202.796 249.634 203.391L251.719 211.115C255.244 210.163 258.251 208.406 260.467 205.702L254.281 200.63ZM246.677 207.253V207.358H254.677V207.253H246.677ZM249.368 211.138C249.445 211.165 249.894 211.369 250.691 212.204C251.46 213.009 252.374 214.212 253.421 215.9L260.22 211.684C258.999 209.716 257.756 208.019 256.477 206.679C255.226 205.369 253.737 204.185 251.985 203.578L249.368 211.138ZM253.434 215.921L261.107 228.129L267.88 223.871L260.207 211.663L253.434 215.921ZM235.813 190.378V203.983H243.813V190.378H235.813ZM239.813 207.983H245.43V199.983H239.813V207.983ZM245.43 207.983C248.582 207.983 251.527 207.044 253.811 204.818L248.228 199.089C247.735 199.569 246.953 199.983 245.43 199.983V207.983ZM253.793 204.835C256.044 202.669 257.129 199.877 257.129 196.785H249.129C249.129 197.876 248.808 198.53 248.246 199.071L253.793 204.835ZM257.129 196.785C257.129 193.838 256.223 190.959 253.81 188.923C251.527 186.996 248.533 186.378 245.535 186.378V194.378C247.6 194.378 248.403 194.828 248.651 195.037C248.769 195.136 249.129 195.461 249.129 196.785H257.129ZM245.535 186.378H239.813V194.378H245.535V186.378ZM302.62 226V230H308.389L306.366 224.597L302.62 226ZM295.659 226L291.895 227.354L292.847 230H295.659V226ZM291.836 215.374L295.6 214.02L294.648 211.374H291.836V215.374ZM275.488 215.374V211.374H272.63L271.704 214.078L275.488 215.374ZM271.85 226V230H274.708L275.634 227.296L271.85 226ZM264.889 226L261.146 224.589L259.106 230H264.889V226ZM280.287 185.157V181.157H277.52L276.544 183.746L280.287 185.157ZM287.327 185.157L291.073 183.755L290.101 181.157H287.327V185.157ZM290.069 210.127V214.127H295.726L293.841 208.794L290.069 210.127ZM284.374 194.017L288.145 192.683L288.139 192.666L288.133 192.65L284.374 194.017ZM283.741 190.932L287.701 190.366L287.21 186.932H283.741V190.932ZM283.557 190.932V186.932H280.044L279.59 190.414L283.557 190.932ZM282.897 193.964L286.672 195.288L286.675 195.278L282.897 193.964ZM277.229 210.127L273.454 208.803L271.587 214.127H277.229V210.127ZM302.62 222H295.659V230H302.62V222ZM299.423 224.646L295.6 214.02L288.072 216.728L291.895 227.354L299.423 224.646ZM291.836 211.374H275.488V219.374H291.836V211.374ZM271.704 214.078L268.065 224.704L275.634 227.296L279.273 216.67L271.704 214.078ZM271.85 222H264.889V230H271.85V222ZM268.632 227.411L284.03 186.568L276.544 183.746L261.146 224.589L268.632 227.411ZM280.287 189.157H287.327V181.157H280.287V189.157ZM283.581 186.56L298.874 227.403L306.366 224.597L291.073 183.755L283.581 186.56ZM293.841 208.794L288.145 192.683L280.603 195.35L286.298 211.46L293.841 208.794ZM288.133 192.65C288.134 192.652 288.116 192.603 288.085 192.483C288.055 192.367 288.018 192.21 287.976 192.007C287.892 191.596 287.799 191.055 287.701 190.366L279.781 191.497C279.992 192.972 280.247 194.372 280.615 195.384L288.133 192.65ZM283.741 186.932H283.557V194.932H283.741V186.932ZM279.59 190.414C279.454 191.461 279.282 192.183 279.119 192.65L286.675 195.278C287.076 194.127 287.343 192.828 287.523 191.449L279.59 190.414ZM279.123 192.64L273.454 208.803L281.003 211.451L286.672 195.288L279.123 192.64ZM277.229 214.127H290.069V206.127H277.229V214.127ZM314.644 211.05V207.05H310.644V211.05H314.644ZM314.644 226V230H318.644V226H314.644ZM308.315 226H304.315V230H308.315V226ZM308.315 185.157V181.157H304.315V185.157H308.315ZM331.281 188.374L328.653 191.39L328.659 191.395L328.666 191.4L331.281 188.374ZM330.569 207.543L333.15 210.599L333.16 210.59L330.569 207.543ZM319.68 211.05L319.81 207.052L319.745 207.05H319.68V211.05ZM314.644 190.457V186.457H310.644V190.457H314.644ZM314.644 205.776H310.644V209.776H314.644V205.776ZM310.644 211.05V226H318.644V211.05H310.644ZM314.644 222H308.315V230H314.644V222ZM312.315 226V185.157H304.315V226H312.315ZM308.315 189.157H320.655V181.157H308.315V189.157ZM320.655 189.157C324.711 189.157 327.173 190.1 328.653 191.39L333.909 185.358C330.467 182.359 325.846 181.157 320.655 181.157V189.157ZM328.666 191.4C330.036 192.585 330.973 194.444 330.973 197.655H338.973C338.973 192.745 337.448 188.417 333.897 185.348L328.666 191.4ZM330.973 197.655C330.973 200.662 329.958 202.812 327.978 204.496L333.16 210.59C337.052 207.281 338.973 202.84 338.973 197.655H330.973ZM327.989 204.487C325.906 206.245 323.279 207.165 319.81 207.052L319.55 215.048C324.729 215.216 329.362 213.798 333.15 210.599L327.989 204.487ZM319.68 207.05H314.644V215.05H319.68V207.05ZM310.644 190.457V205.776H318.644V190.457H310.644ZM314.644 209.776H319.179V201.776H314.644V209.776ZM319.179 209.776C322.709 209.776 326.103 209.031 328.647 206.847C331.308 204.562 332.328 201.327 332.328 197.919H324.328C324.328 199.749 323.824 200.443 323.435 200.777C322.929 201.212 321.748 201.776 319.179 201.776V209.776ZM332.328 197.919C332.328 194.629 331.33 191.49 328.723 189.275C326.242 187.165 322.947 186.457 319.548 186.457V194.457C322.003 194.457 323.098 194.992 323.543 195.37C323.863 195.643 324.328 196.234 324.328 197.919H332.328ZM319.548 186.457H314.644V194.457H319.548V186.457ZM374.418 226V230H378.418V226H374.418ZM368.09 226H364.09V230H368.09V226ZM368.09 208.07H372.09V204.07H368.09V208.07ZM348.446 208.07V204.07H344.446V208.07H348.446ZM348.446 226V230H352.446V226H348.446ZM342.118 226H338.118V230H342.118V226ZM342.118 185.157V181.157H338.118V185.157H342.118ZM348.446 185.157H352.446V181.157H348.446V185.157ZM348.446 202.507H344.446V206.507H348.446V202.507ZM368.09 202.507V206.507H372.09V202.507H368.09ZM368.09 185.157V181.157H364.09V185.157H368.09ZM374.418 185.157H378.418V181.157H374.418V185.157ZM374.418 222H368.09V230H374.418V222ZM372.09 226V208.07H364.09V226H372.09ZM368.09 204.07H348.446V212.07H368.09V204.07ZM344.446 208.07V226H352.446V208.07H344.446ZM348.446 222H342.118V230H348.446V222ZM346.118 226V185.157H338.118V226H346.118ZM342.118 189.157H348.446V181.157H342.118V189.157ZM344.446 185.157V202.507H352.446V185.157H344.446ZM348.446 206.507H368.09V198.507H348.446V206.507ZM372.09 202.507V185.157H364.09V202.507H372.09ZM368.09 189.157H374.418V181.157H368.09V189.157ZM370.418 185.157V226H378.418V185.157H370.418ZM389.184 220.278L386.493 223.238L386.512 223.255L386.53 223.272L389.184 220.278ZM389.236 225.578L392.03 228.44L392.048 228.424L392.065 228.407L389.236 225.578ZM383.646 225.604L380.886 228.499L380.904 228.516L380.922 228.533L383.646 225.604ZM386.513 222.941C386.513 222.914 386.515 222.918 386.51 222.946C386.504 222.975 386.492 223.018 386.47 223.069C386.448 223.12 386.422 223.164 386.397 223.197C386.373 223.23 386.358 223.243 386.364 223.238L380.982 217.319C379.351 218.802 378.513 220.775 378.513 222.941H386.513ZM386.364 223.238C386.386 223.218 386.396 223.212 386.393 223.214C386.39 223.216 386.381 223.221 386.369 223.225C386.357 223.23 386.353 223.23 386.359 223.229C386.367 223.228 386.393 223.224 386.441 223.224V215.224C384.402 215.224 382.513 215.927 380.982 217.319L386.364 223.238ZM386.441 223.224C386.482 223.224 386.501 223.227 386.503 223.227C386.504 223.227 386.496 223.226 386.482 223.221C386.468 223.215 386.459 223.21 386.457 223.209C386.455 223.208 386.468 223.215 386.493 223.238L391.874 217.319C390.357 215.939 388.481 215.224 386.441 215.224V223.224ZM386.53 223.272C386.526 223.268 386.503 223.246 386.472 223.204C386.441 223.162 386.411 223.111 386.387 223.056C386.334 222.936 386.344 222.877 386.344 222.941H394.344C394.344 220.778 393.518 218.775 391.837 217.285L386.53 223.272ZM386.344 222.941C386.344 222.954 386.343 222.944 386.348 222.916C386.354 222.888 386.363 222.853 386.379 222.816C386.394 222.78 386.41 222.753 386.42 222.738C386.43 222.724 386.429 222.728 386.408 222.75L392.065 228.407C393.533 226.938 394.344 225.05 394.344 222.941H386.344ZM386.442 222.716C386.446 222.712 386.461 222.699 386.485 222.683C386.51 222.667 386.534 222.656 386.551 222.649C386.568 222.643 386.568 222.645 386.546 222.649C386.522 222.653 386.472 222.659 386.389 222.659V230.659C388.452 230.659 390.45 229.984 392.03 228.44L386.442 222.716ZM386.389 222.659C386.34 222.659 386.315 222.655 386.311 222.654C386.309 222.654 386.31 222.654 386.315 222.656C386.32 222.657 386.327 222.659 386.335 222.662C386.343 222.665 386.352 222.669 386.36 222.673C386.368 222.677 386.374 222.681 386.379 222.684C386.384 222.687 386.386 222.688 386.385 222.688C386.384 222.687 386.379 222.683 386.371 222.676L380.922 228.533C382.449 229.954 384.349 230.659 386.389 230.659V222.659ZM386.407 222.71C386.395 222.698 386.403 222.704 386.42 222.728C386.438 222.753 386.458 222.788 386.476 222.831C386.495 222.874 386.505 222.911 386.51 222.937C386.515 222.962 386.513 222.965 386.513 222.941H378.513C378.513 225.078 379.33 227.015 380.886 228.499L386.407 222.71ZM402.947 220.278L400.257 223.238L400.275 223.255L400.294 223.272L402.947 220.278ZM403 225.578L405.794 228.44L405.811 228.424L405.828 228.407L403 225.578ZM397.41 225.604L394.65 228.499L394.668 228.516L394.686 228.533L397.41 225.604ZM400.276 222.941C400.276 222.914 400.279 222.918 400.273 222.946C400.268 222.975 400.256 223.018 400.234 223.069C400.211 223.12 400.185 223.164 400.161 223.197C400.137 223.23 400.122 223.243 400.127 223.238L394.746 217.319C393.114 218.802 392.276 220.775 392.276 222.941H400.276ZM400.127 223.238C400.15 223.218 400.16 223.212 400.157 223.214C400.153 223.216 400.145 223.221 400.133 223.225C400.121 223.23 400.116 223.23 400.123 223.229C400.13 223.228 400.156 223.224 400.205 223.224V215.224C398.166 215.224 396.276 215.927 394.746 217.319L400.127 223.238ZM400.205 223.224C400.246 223.224 400.265 223.227 400.267 223.227C400.268 223.227 400.259 223.226 400.246 223.221C400.232 223.215 400.223 223.21 400.221 223.209C400.219 223.208 400.231 223.215 400.257 223.238L405.638 217.319C404.121 215.939 402.245 215.224 400.205 215.224V223.224ZM400.294 223.272C400.289 223.268 400.266 223.246 400.236 223.204C400.204 223.162 400.174 223.111 400.15 223.056C400.098 222.936 400.107 222.877 400.107 222.941H408.107C408.107 220.778 407.282 218.775 405.6 217.285L400.294 223.272ZM400.107 222.941C400.107 222.954 400.106 222.944 400.112 222.916C400.117 222.888 400.127 222.853 400.143 222.816C400.158 222.78 400.174 222.753 400.184 222.738C400.194 222.724 400.193 222.728 400.172 222.75L405.828 228.407C407.297 226.938 408.107 225.05 408.107 222.941H400.107ZM400.206 222.716C400.21 222.712 400.225 222.699 400.249 222.683C400.274 222.667 400.297 222.656 400.315 222.649C400.332 222.643 400.332 222.645 400.309 222.649C400.286 222.653 400.235 222.659 400.152 222.659V230.659C402.215 230.659 404.213 229.984 405.794 228.44L400.206 222.716ZM400.152 222.659C400.103 222.659 400.079 222.655 400.075 222.654C400.073 222.654 400.074 222.654 400.079 222.656C400.083 222.657 400.09 222.659 400.099 222.662C400.107 222.665 400.115 222.669 400.123 222.673C400.131 222.677 400.138 222.681 400.143 222.684C400.147 222.687 400.149 222.688 400.148 222.688C400.147 222.687 400.143 222.683 400.135 222.676L394.686 228.533C396.213 229.954 398.112 230.659 400.152 230.659V222.659ZM400.17 222.71C400.159 222.698 400.166 222.704 400.183 222.728C400.201 222.753 400.222 222.788 400.24 222.831C400.258 222.874 400.269 222.911 400.274 222.937C400.278 222.962 400.276 222.965 400.276 222.941H392.276C392.276 225.078 393.094 227.015 394.65 228.499L400.17 222.71ZM416.711 220.278L414.02 223.238L414.039 223.255L414.058 223.272L416.711 220.278ZM416.764 225.578L419.558 228.44L419.575 228.424L419.592 228.407L416.764 225.578ZM411.174 225.604L408.414 228.499L408.431 228.516L408.449 228.533L411.174 225.604ZM414.04 222.941C414.04 222.914 414.042 222.918 414.037 222.946C414.031 222.975 414.019 223.018 413.997 223.069C413.975 223.12 413.949 223.164 413.924 223.197C413.9 223.23 413.886 223.243 413.891 223.238L408.509 217.319C406.878 218.802 406.04 220.775 406.04 222.941H414.04ZM413.891 223.238C413.913 223.218 413.923 223.212 413.92 223.214C413.917 223.216 413.908 223.221 413.896 223.225C413.885 223.23 413.88 223.23 413.887 223.229C413.894 223.228 413.92 223.224 413.969 223.224V215.224C411.93 215.224 410.04 215.927 408.509 217.319L413.891 223.238ZM413.969 223.224C414.009 223.224 414.029 223.227 414.03 223.227C414.031 223.227 414.023 223.226 414.009 223.221C413.996 223.215 413.987 223.21 413.984 223.209C413.983 223.208 413.995 223.215 414.02 223.238L419.402 217.319C417.885 215.939 416.009 215.224 413.969 215.224V223.224ZM414.058 223.272C414.053 223.268 414.03 223.246 413.999 223.204C413.968 223.162 413.938 223.111 413.914 223.056C413.862 222.936 413.871 222.877 413.871 222.941H421.871C421.871 220.778 421.046 218.775 419.364 217.285L414.058 223.272ZM413.871 222.941C413.871 222.954 413.87 222.944 413.875 222.916C413.881 222.888 413.891 222.853 413.906 222.816C413.922 222.78 413.938 222.753 413.948 222.738C413.958 222.724 413.957 222.728 413.935 222.75L419.592 228.407C421.06 226.938 421.871 225.05 421.871 222.941H413.871ZM413.97 222.716C413.974 222.712 413.988 222.699 414.013 222.683C414.037 222.667 414.061 222.656 414.078 222.649C414.095 222.643 414.096 222.645 414.073 222.649C414.05 222.653 413.999 222.659 413.916 222.659V230.659C415.979 230.659 417.977 229.984 419.558 228.44L413.97 222.716ZM413.916 222.659C413.867 222.659 413.843 222.655 413.839 222.654C413.836 222.654 413.838 222.654 413.842 222.656C413.847 222.657 413.854 222.659 413.862 222.662C413.87 222.665 413.879 222.669 413.887 222.673C413.895 222.677 413.902 222.681 413.906 222.684C413.911 222.687 413.913 222.688 413.912 222.688C413.911 222.687 413.906 222.683 413.898 222.676L408.449 228.533C409.976 229.954 411.876 230.659 413.916 230.659V222.659ZM413.934 222.71C413.922 222.698 413.93 222.704 413.947 222.728C413.965 222.753 413.986 222.788 414.004 222.831C414.022 222.874 414.032 222.911 414.037 222.937C414.042 222.962 414.04 222.965 414.04 222.941H406.04C406.04 225.078 406.857 227.015 408.414 228.499L413.934 222.71Z" fill="#E79191"/>
</svg>
