<?xml version="1.0"?>
<svg xmlns="http://www.w3.org/2000/svg" xmlns:xlink="http://www.w3.org/1999/xlink" id="Gradient" viewBox="0 0 512 512" width="512" height="512"><defs><linearGradient id="linear-gradient" x1="256" y1="496" x2="256" y2="16" gradientUnits="userSpaceOnUse"><stop offset="0" stop-color="#12c2e9"/><stop offset="0.5" stop-color="#c471ed"/><stop offset="1" stop-color="#f64f59"/></linearGradient></defs><path d="M200,80a32,32,0,1,1,32-32A32.036,32.036,0,0,1,200,80Zm0-48a16,16,0,1,0,16,16A16.019,16.019,0,0,0,200,32ZM56,224a32,32,0,1,1,32-32A32.036,32.036,0,0,1,56,224Zm0-48a16,16,0,1,0,16,16A16.019,16.019,0,0,0,56,176Zm53-43a32,32,0,1,1,32-32A32.036,32.036,0,0,1,109,133Zm0-48a16,16,0,1,0,16,16A16.019,16.019,0,0,0,109,85ZM251.922,496A243.187,243.187,0,0,1,80,425.183V456a32,32,0,0,1-64,0V312.006a32,32,0,0,1,38.939-31.237l144,32a32,32,0,1,1-13.882,62.474L106.211,357.72a182.158,182.158,0,0,0,36.382,37.351A178.516,178.516,0,0,0,251.922,432C351.218,432,432,351.309,432,252.124a178.017,178.017,0,0,0-37.31-109.646,181.327,181.327,0,0,0-94.259-63.64A32,32,0,1,1,317.61,17.19,245.73,245.73,0,0,1,445.375,103.4h0A243.9,243.9,0,0,1,251.922,496ZM72,396.741a8,8,0,0,1,6.1,2.825A228.042,228.042,0,0,0,480,252.124,225.609,225.609,0,0,0,432.7,113.17,229.623,229.623,0,0,0,313.313,32.6a16,16,0,0,0-8.587,30.825,197.42,197.42,0,0,1,102.636,69.282A193.89,193.89,0,0,1,448,252.124C448,360.131,360.04,448,251.922,448a194.382,194.382,0,0,1-119.047-40.221,198.956,198.956,0,0,1-50.967-58.117,8,8,0,0,1,8.664-11.808l97.957,21.767a16,16,0,1,0,6.942-31.237l-144-32A16,16,0,0,0,32,312.006V456a16,16,0,0,0,32,0v-51.26a8,8,0,0,1,8-8Z" style="fill:url(#linear-gradient)"/></svg>
