<?xml version="1.0"?>
<svg xmlns="http://www.w3.org/2000/svg" xmlns:xlink="http://www.w3.org/1999/xlink" version="1.1" id="Layer_1" x="0px" y="0px" viewBox="0 0 512 512" style="enable-background:new 0 0 512 512;" xml:space="preserve" width="512px" height="512px"><g><g>
	<g>
		<path d="M324.267,0c-87.951,0-161.765,60.484-182.142,142.124c14.602-3.645,29.879-5.591,45.609-5.591    c103.682,0,187.733,84.052,187.733,187.733c0,15.732-1.946,31.007-5.591,45.609C451.516,349.498,512,275.685,512,187.733    C512,84.052,427.948,0,324.267,0z" data-original="#000000" class="active-path" data-old_color="#000000" fill="#DB8211"/>
	</g>
</g><g>
	<g>
		<path d="M324.267,375.467c-103.682,0-187.733-84.052-187.733-187.733c0-15.732,1.946-31.007,5.591-45.609    C60.484,162.502,0,236.315,0,324.267C0,427.948,84.052,512,187.733,512c87.951,0,161.765-60.484,182.142-142.124    C355.273,373.521,339.997,375.467,324.267,375.467z" data-original="#000000" class="active-path" data-old_color="#000000" fill="#DB8211"/>
	</g>
</g></g> </svg>
