<svg width="94" height="94" viewBox="0 0 94 94" fill="none" xmlns="http://www.w3.org/2000/svg">
<ellipse cx="48.5" cy="47" rx="45.5" ry="47" fill="#FFBFE9"/>
<path d="M21.9316 57.1348H12.9668V55.875H21.9316V57.1348ZM35.3105 54H32.5664L30.1055 49.8789C29.6237 49.0716 29.1842 48.5215 28.7871 48.2285C28.3965 47.9355 27.9473 47.7891 27.4395 47.7891H26.1699V54H23.8262V38.873H28.6406C30.2096 38.873 31.4206 39.2279 32.2734 39.9375C33.1328 40.6406 33.5625 41.64 33.5625 42.9355C33.5625 43.9512 33.2663 44.8203 32.6738 45.543C32.0814 46.2656 31.2546 46.7702 30.1934 47.0566V47.0957C30.8704 47.3301 31.6289 48.1243 32.4688 49.4785L35.3105 54ZM26.1699 40.8066V45.8457H28.25C29.1159 45.8457 29.806 45.5951 30.3203 45.0938C30.8411 44.5924 31.1016 43.9544 31.1016 43.1797C31.1016 41.5977 30.1641 40.8066 28.2891 40.8066H26.1699ZM45.5449 54H37.166V38.873H45.2031V40.8848H39.5098V45.3379H44.793V47.3398H39.5098V51.9883H45.5449V54ZM47.5957 50.8652C48.7546 51.8092 50.1185 52.2812 51.6875 52.2812C53.6927 52.2812 54.6953 51.5944 54.6953 50.2207C54.6953 49.8236 54.5846 49.4655 54.3633 49.1465C54.1419 48.8275 53.8424 48.5508 53.4648 48.3164C53.0938 48.0755 52.3548 47.6914 51.248 47.1641C49.8874 46.513 48.9368 45.8522 48.3965 45.1816C47.8561 44.5111 47.5859 43.7233 47.5859 42.8184C47.5859 41.5163 48.1003 40.4909 49.1289 39.7422C50.1576 38.9935 51.4727 38.6191 53.0742 38.6191C54.5911 38.6191 55.737 38.8047 56.5117 39.1758V41.5781C55.5807 40.9336 54.4186 40.6113 53.0254 40.6113C52.1335 40.6113 51.4141 40.7904 50.8672 41.1484C50.3203 41.5065 50.0469 41.998 50.0469 42.623C50.0469 43.1895 50.2454 43.6549 50.6426 44.0195C51.0462 44.3841 51.8926 44.8724 53.1816 45.4844C54.6855 46.1875 55.724 46.8939 56.2969 47.6035C56.8698 48.3066 57.1562 49.1172 57.1562 50.0352C57.1562 51.4023 56.6615 52.4473 55.6719 53.1699C54.6823 53.8926 53.3118 54.2539 51.5605 54.2539C50.916 54.2539 50.1999 54.1758 49.4121 54.0195C48.6243 53.8633 48.0189 53.6549 47.5957 53.3945V50.8652ZM68.377 54H59.998V38.873H68.0352V40.8848H62.3418V45.3379H67.625V47.3398H62.3418V51.9883H68.377V54ZM80.6621 40.8848H76.3164V54H73.9629V40.8848H69.627V38.873H80.6621V40.8848Z" fill="#764174"/>
</svg>
