<svg width="129" height="129" viewBox="0 0 129 129" fill="none" xmlns="http://www.w3.org/2000/svg">
<circle cx="64.5" cy="64.5" r="64.5" fill="#764174"/>
<path d="M37.9023 81.6426H21.7656V79.375H37.9023V81.6426ZM40.0469 70.3574C42.1328 72.0566 44.5879 72.9062 47.4121 72.9062C51.0215 72.9062 52.8262 71.6699 52.8262 69.1973C52.8262 68.4824 52.627 67.8379 52.2285 67.2637C51.8301 66.6895 51.291 66.1914 50.6113 65.7695C49.9434 65.3359 48.6133 64.6445 46.6211 63.6953C44.1719 62.5234 42.4609 61.334 41.4883 60.127C40.5156 58.9199 40.0293 57.502 40.0293 55.873C40.0293 53.5293 40.9551 51.6836 42.8066 50.3359C44.6582 48.9883 47.0254 48.3145 49.9082 48.3145C52.6387 48.3145 54.7012 48.6484 56.0957 49.3164V53.6406C54.4199 52.4805 52.3281 51.9004 49.8203 51.9004C48.2148 51.9004 46.9199 52.2227 45.9355 52.8672C44.9512 53.5117 44.459 54.3965 44.459 55.5215C44.459 56.541 44.8164 57.3789 45.5312 58.0352C46.2578 58.6914 47.7812 59.5703 50.1016 60.6719C52.8086 61.9375 54.6777 63.209 55.709 64.4863C56.7402 65.752 57.2559 67.2109 57.2559 68.8633C57.2559 71.3242 56.3652 73.2051 54.584 74.5059C52.8027 75.8066 50.3359 76.457 47.1836 76.457C46.0234 76.457 44.7344 76.3164 43.3164 76.0352C41.8984 75.7539 40.8086 75.3789 40.0469 74.9102V70.3574ZM77.4531 76H62.3711V48.7715H76.8379V52.3926H66.5898V60.4082H76.0996V64.0117H66.5898V72.3789H77.4531V76ZM99.5664 52.3926H91.7441V76H87.5078V52.3926H79.7031V48.7715H99.5664V52.3926Z" fill="#FFBFE9"/>
</svg>
