<svg width="599" height="604" viewBox="0 0 599 604" fill="none" xmlns="http://www.w3.org/2000/svg">
<path d="M63.9193 42.9989C67.4072 18.335 88.5174 0 113.427 0H541.981C572.189 0 595.498 26.5811 591.553 56.5302L526.539 550.068C522.74 578.908 495.219 598.429 466.745 592.482L45.8427 504.574C20.0537 499.188 2.86853 474.715 6.55745 448.629L63.9193 42.9989Z" fill="url(#paint0_linear)"/>
<path d="M493.5 461.5C426.655 546.171 349.669 512.903 267.848 477.545C221.146 457.363 172.867 436.5 124 436.5C31.0746 436.5 51.0527 336.807 72.2727 230.917C81.7622 183.564 91.5 134.971 91.5 93.5C91.5 10.1125 205.39 17.8023 303.514 24.4277C363.313 28.4653 417.257 32.1075 436 14.5C570.482 14.5 544.5 361.5 493.5 461.5Z" fill="#CDF4FF"/>
<path d="M493.5 461.5C426.655 546.171 349.669 512.903 267.848 477.545C221.146 457.363 172.867 436.5 124 436.5C31.0746 436.5 51.0527 336.807 72.2727 230.917C81.7622 183.564 91.5 134.971 91.5 93.5C91.5 10.1125 205.39 17.8023 303.514 24.4277C363.313 28.4653 417.257 32.1075 436 14.5C570.482 14.5 544.5 361.5 493.5 461.5Z" stroke="white"/>
<line x1="428.966" y1="311.75" x2="478.966" y2="398.353" stroke="url(#paint1_linear)" stroke-width="7"/>
<line x1="377.735" y1="404.44" x2="477.73" y2="403.433" stroke="url(#paint2_linear)" stroke-width="7"/>
<circle cx="475.935" cy="400.103" r="12" transform="rotate(120 475.935 400.103)" fill="#1CCBFF"/>
<line x1="504.327" y1="248.686" x2="404.327" y2="248.686" stroke="url(#paint3_linear)" stroke-width="7"/>
<line x1="449.671" y1="157.973" x2="400.546" y2="245.075" stroke="url(#paint4_linear)" stroke-width="7"/>
<circle cx="404.327" cy="245.186" r="12" transform="rotate(-120 404.327 245.186)" fill="#1CCBFF"/>
<line x1="392.969" y1="132.353" x2="442.969" y2="45.75" stroke="url(#paint5_linear)" stroke-width="7"/>
<line x1="498.856" y1="130.375" x2="447.987" y2="44.2804" stroke="url(#paint6_linear)" stroke-width="7"/>
<circle cx="446" cy="47.5" r="12" fill="#1CCBFF"/>
<defs>
<linearGradient id="paint0_linear" x1="299.5" y1="7.49116e-06" x2="806" y2="1143" gradientUnits="userSpaceOnUse">
<stop offset="0.107657" stop-color="#FFFFF8"/>
<stop offset="0.286923" stop-color="#EBECB8" stop-opacity="0.799107"/>
<stop offset="0.65191" stop-color="#9780DF" stop-opacity="0"/>
</linearGradient>
<linearGradient id="paint1_linear" x1="469.092" y1="390.955" x2="430.818" y2="323.247" gradientUnits="userSpaceOnUse">
<stop offset="0.678745" stop-color="white"/>
<stop offset="1" stop-color="#F9FC5D" stop-opacity="0"/>
</linearGradient>
<linearGradient id="paint2_linear" x1="474.714" y1="404.2" x2="384.07" y2="396.011" gradientUnits="userSpaceOnUse">
<stop offset="0.28125" stop-color="white"/>
<stop offset="1" stop-color="#FCFCC7" stop-opacity="0"/>
</linearGradient>
<linearGradient id="paint3_linear" x1="415.67" y1="243.833" x2="493.444" y2="244.541" gradientUnits="userSpaceOnUse">
<stop offset="0.678745" stop-color="white"/>
<stop offset="1" stop-color="#F9FC5D" stop-opacity="0"/>
</linearGradient>
<linearGradient id="paint4_linear" x1="401.389" y1="242.08" x2="453.804" y2="167.674" gradientUnits="userSpaceOnUse">
<stop offset="0.28125" stop-color="white"/>
<stop offset="1" stop-color="#FCFCC7" stop-opacity="0"/>
</linearGradient>
<linearGradient id="paint5_linear" x1="441.5" y1="57.9999" x2="402" y2="125" gradientUnits="userSpaceOnUse">
<stop offset="0.678745" stop-color="white"/>
<stop offset="1" stop-color="#F9FC5D" stop-opacity="0"/>
</linearGradient>
<linearGradient id="paint6_linear" x1="450.159" y1="46.5086" x2="488.389" y2="129.103" gradientUnits="userSpaceOnUse">
<stop offset="0.28125" stop-color="white"/>
<stop offset="1" stop-color="#FCFCC7" stop-opacity="0"/>
</linearGradient>
</defs>
</svg>
