<svg width="325" height="210" viewBox="0 0 325 210" fill="none" xmlns="http://www.w3.org/2000/svg">
<g filter="url(#filter0_d)">
<path d="M282 139C282 152.807 271.255 164 258 164C244.745 164 234 152.807 234 139C234 125.193 244.745 114 258 114C271.255 114 282 125.193 282 139Z" fill="#EAEAEA"/>
<ellipse cx="57" cy="146.5" rx="53" ry="55.5" fill="#764174"/>
<ellipse cx="187.5" cy="41" rx="39.5" ry="41" fill="#FFBFE9"/>
<path d="M319 57C309 88.5 348.5 124.5 267.642 145.5C171.544 145.5 30 163.951 30 127.5C30 91.0492 -11.0975 31.5 85 31.5C181.098 31.5 326.302 34 319 57Z" fill="#FFECAA"/>
<rect x="29" y="41" width="284" height="91" rx="45.5" fill="white"/>
<path d="M73.0391 90.2383C74.4297 91.3711 76.0664 91.9375 77.9492 91.9375C80.3555 91.9375 81.5586 91.1133 81.5586 89.4648C81.5586 88.9883 81.4258 88.5586 81.1602 88.1758C80.8945 87.793 80.5352 87.4609 80.082 87.1797C79.6367 86.8906 78.75 86.4297 77.4219 85.7969C75.7891 85.0156 74.6484 84.2227 74 83.418C73.3516 82.6133 73.0273 81.668 73.0273 80.582C73.0273 79.0195 73.6445 77.7891 74.8789 76.8906C76.1133 75.9922 77.6914 75.543 79.6133 75.543C81.4336 75.543 82.8086 75.7656 83.7383 76.2109V79.0938C82.6211 78.3203 81.2266 77.9336 79.5547 77.9336C78.4844 77.9336 77.6211 78.1484 76.9648 78.5781C76.3086 79.0078 75.9805 79.5977 75.9805 80.3477C75.9805 81.0273 76.2188 81.5859 76.6953 82.0234C77.1797 82.4609 78.1953 83.0469 79.7422 83.7812C81.5469 84.625 82.793 85.4727 83.4805 86.3242C84.168 87.168 84.5117 88.1406 84.5117 89.2422C84.5117 90.8828 83.918 92.1367 82.7305 93.0039C81.543 93.8711 79.8984 94.3047 77.7969 94.3047C77.0234 94.3047 76.1641 94.2109 75.2188 94.0234C74.2734 93.8359 73.5469 93.5859 73.0391 93.2734V90.2383ZM102.277 94H99.4648V86.0312H90.7344V94H87.9219V75.8477H90.7344V83.5586H99.4648V75.8477H102.277V94ZM105.664 85.1523C105.664 82.2852 106.465 79.9688 108.066 78.2031C109.676 76.4297 111.844 75.543 114.57 75.543C117.125 75.543 119.176 76.4023 120.723 78.1211C122.27 79.8398 123.043 82.043 123.043 84.7305C123.043 87.582 122.254 89.8906 120.676 91.6562C119.098 93.4219 116.965 94.3047 114.277 94.3047C111.715 94.3047 109.637 93.4531 108.043 91.75C106.457 90.0469 105.664 87.8477 105.664 85.1523ZM108.617 84.9531C108.617 86.9531 109.129 88.6016 110.152 89.8984C111.176 91.1875 112.559 91.832 114.301 91.832C116.129 91.832 117.551 91.2188 118.566 89.9922C119.582 88.7578 120.09 87.0938 120.09 85C120.09 82.8594 119.598 81.1641 118.613 79.9141C117.637 78.6641 116.242 78.0391 114.43 78.0391C112.664 78.0391 111.254 78.6875 110.199 79.9844C109.145 81.2812 108.617 82.9375 108.617 84.9531ZM125.258 85.1523C125.258 82.2852 126.059 79.9688 127.66 78.2031C129.27 76.4297 131.438 75.543 134.164 75.543C136.719 75.543 138.77 76.4023 140.316 78.1211C141.863 79.8398 142.637 82.043 142.637 84.7305C142.637 87.582 141.848 89.8906 140.27 91.6562C138.691 93.4219 136.559 94.3047 133.871 94.3047C131.309 94.3047 129.23 93.4531 127.637 91.75C126.051 90.0469 125.258 87.8477 125.258 85.1523ZM128.211 84.9531C128.211 86.9531 128.723 88.6016 129.746 89.8984C130.77 91.1875 132.152 91.832 133.895 91.832C135.723 91.832 137.145 91.2188 138.16 89.9922C139.176 88.7578 139.684 87.0938 139.684 85C139.684 82.8594 139.191 81.1641 138.207 79.9141C137.23 78.6641 135.836 78.0391 134.023 78.0391C132.258 78.0391 130.848 78.6875 129.793 79.9844C128.738 81.2812 128.211 82.9375 128.211 84.9531ZM145.18 90.2383C146.57 91.3711 148.207 91.9375 150.09 91.9375C152.496 91.9375 153.699 91.1133 153.699 89.4648C153.699 88.9883 153.566 88.5586 153.301 88.1758C153.035 87.793 152.676 87.4609 152.223 87.1797C151.777 86.8906 150.891 86.4297 149.562 85.7969C147.93 85.0156 146.789 84.2227 146.141 83.418C145.492 82.6133 145.168 81.668 145.168 80.582C145.168 79.0195 145.785 77.7891 147.02 76.8906C148.254 75.9922 149.832 75.543 151.754 75.543C153.574 75.543 154.949 75.7656 155.879 76.2109V79.0938C154.762 78.3203 153.367 77.9336 151.695 77.9336C150.625 77.9336 149.762 78.1484 149.105 78.5781C148.449 79.0078 148.121 79.5977 148.121 80.3477C148.121 81.0273 148.359 81.5859 148.836 82.0234C149.32 82.4609 150.336 83.0469 151.883 83.7812C153.688 84.625 154.934 85.4727 155.621 86.3242C156.309 87.168 156.652 88.1406 156.652 89.2422C156.652 90.8828 156.059 92.1367 154.871 93.0039C153.684 93.8711 152.039 94.3047 149.938 94.3047C149.164 94.3047 148.305 94.2109 147.359 94.0234C146.414 93.8359 145.688 93.5859 145.18 93.2734V90.2383ZM170.117 94H160.062V75.8477H169.707V78.2617H162.875V83.6055H169.215V86.0078H162.875V91.5859H170.117V94ZM194.141 94H191.047L189.348 89.2773H182.082L180.465 94H177.371L184.215 75.8477H187.344L194.141 94ZM188.562 86.9453L186.031 79.7852C185.938 79.5273 185.844 79.0703 185.75 78.4141H185.668C185.598 78.9531 185.5 79.4023 185.375 79.7617L182.855 86.9453H188.562ZM209.258 93.2852C207.914 93.9648 206.223 94.3047 204.184 94.3047C201.559 94.3047 199.453 93.4805 197.867 91.832C196.289 90.1758 195.5 87.9922 195.5 85.2812C195.5 82.4531 196.375 80.125 198.125 78.2969C199.883 76.4609 202.145 75.543 204.91 75.543C206.652 75.543 208.102 75.7852 209.258 76.2695V79.1172C207.977 78.3984 206.559 78.0391 205.004 78.0391C203.027 78.0391 201.441 78.6914 200.246 79.9961C199.051 81.293 198.453 82.9922 198.453 85.0938C198.453 87.1016 199.012 88.7266 200.129 89.9688C201.254 91.2109 202.758 91.832 204.641 91.832C206.391 91.832 207.93 91.4297 209.258 90.625V93.2852ZM224.211 78.2617H218.996V94H216.172V78.2617H210.969V75.8477H224.211V78.2617ZM229.73 78.1445V78.1562V91.6914V91.7031V94H226.918V91.7031V91.6914V78.1562V78.1445V75.8477H229.73V78.1445ZM233.117 85.1523C233.117 82.2852 233.918 79.9688 235.52 78.2031C237.129 76.4297 239.297 75.543 242.023 75.543C244.578 75.543 246.629 76.4023 248.176 78.1211C249.723 79.8398 250.496 82.043 250.496 84.7305C250.496 87.582 249.707 89.8906 248.129 91.6562C246.551 93.4219 244.418 94.3047 241.73 94.3047C239.168 94.3047 237.09 93.4531 235.496 91.75C233.91 90.0469 233.117 87.8477 233.117 85.1523ZM236.07 84.9531C236.07 86.9531 236.582 88.6016 237.605 89.8984C238.629 91.1875 240.012 91.832 241.754 91.832C243.582 91.832 245.004 91.2188 246.02 89.9922C247.035 88.7578 247.543 87.0938 247.543 85C247.543 82.8594 247.051 81.1641 246.066 79.9141C245.09 78.6641 243.695 78.0391 241.883 78.0391C240.117 78.0391 238.707 78.6875 237.652 79.9844C236.598 81.2812 236.07 82.9375 236.07 84.9531ZM269.105 94H265.965L257.281 80.6172C256.961 80.125 256.727 79.6992 256.578 79.3398H256.508C256.578 79.8086 256.613 80.6914 256.613 81.9883V94H253.883V75.8477H257.211L265.637 88.9727C266.035 89.5977 266.301 90.0312 266.434 90.2734H266.492C266.406 89.7109 266.363 88.8438 266.363 87.6719V75.8477H269.105V94Z" fill="#B9AB7A"/>
<path d="M73.0391 90.2383L73.6706 89.463L72.0391 88.1339V90.2383H73.0391ZM80.082 87.1797L79.5376 88.0185L79.5461 88.024L79.5547 88.0293L80.082 87.1797ZM77.4219 85.7969L76.9903 86.6989L76.9917 86.6996L77.4219 85.7969ZM83.7383 76.2109H84.7383V75.5811L84.1703 75.3091L83.7383 76.2109ZM83.7383 79.0938L83.1691 79.9159L84.7383 81.0023V79.0938H83.7383ZM76.6953 82.0234L76.019 82.7601L76.025 82.7655L76.6953 82.0234ZM79.7422 83.7812L79.3133 84.6846L79.3187 84.6871L79.7422 83.7812ZM83.4805 86.3242L82.7024 86.9524L82.7052 86.9559L83.4805 86.3242ZM73.0391 93.2734H72.0391V93.8322L72.515 94.1251L73.0391 93.2734ZM72.4075 91.0136C73.9859 92.2994 75.8487 92.9375 77.9492 92.9375V90.9375C76.2842 90.9375 74.8735 90.4428 73.6706 89.463L72.4075 91.0136ZM77.9492 92.9375C79.2354 92.9375 80.3769 92.7229 81.2214 92.1443C82.134 91.5192 82.5586 90.5689 82.5586 89.4648H80.5586C80.5586 90.0092 80.3817 90.2953 80.0911 90.4944C79.7325 90.74 79.0693 90.9375 77.9492 90.9375V92.9375ZM82.5586 89.4648C82.5586 88.7895 82.3663 88.1599 81.9817 87.6057L80.3386 88.7459C80.4852 88.9572 80.5586 89.1871 80.5586 89.4648H82.5586ZM81.9817 87.6057C81.6277 87.0955 81.162 86.673 80.6094 86.33L79.5547 88.0293C79.9083 88.2489 80.1614 88.4905 80.3386 88.7459L81.9817 87.6057ZM80.6265 86.3409C80.1181 86.0109 79.1737 85.5239 77.852 84.8941L76.9917 86.6996C78.3263 87.3355 79.1553 87.7704 79.5376 88.0185L80.6265 86.3409ZM77.8535 84.8948C76.2687 84.1366 75.2875 83.422 74.7787 82.7905L73.2213 84.0454C74.0093 85.0233 75.3094 85.8947 76.9903 86.6989L77.8535 84.8948ZM74.7787 82.7905C74.2811 82.1731 74.0273 81.4522 74.0273 80.582H72.0273C72.0273 81.8837 72.422 83.0535 73.2213 84.0454L74.7787 82.7905ZM74.0273 80.582C74.0273 79.3305 74.4987 78.4042 75.4674 77.6991L74.2904 76.0821C72.7904 77.1739 72.0273 78.7086 72.0273 80.582H74.0273ZM75.4674 77.6991C76.491 76.9541 77.8476 76.543 79.6133 76.543V74.543C77.5352 74.543 75.7356 75.0302 74.2904 76.0821L75.4674 77.6991ZM79.6133 76.543C81.3818 76.543 82.5782 76.764 83.3063 77.1128L84.1703 75.3091C83.039 74.7672 81.4854 74.543 79.6133 74.543V76.543ZM82.7383 76.2109V79.0938H84.7383V76.2109H82.7383ZM84.3075 78.2716C82.9879 77.358 81.3826 76.9336 79.5547 76.9336V78.9336C81.0705 78.9336 82.2543 79.2826 83.1691 79.9159L84.3075 78.2716ZM79.5547 76.9336C78.3586 76.9336 77.2855 77.1729 76.4171 77.7415L77.5126 79.4147C77.9567 79.124 78.6102 78.9336 79.5547 78.9336V76.9336ZM76.4171 77.7415C75.4942 78.3458 74.9805 79.2422 74.9805 80.3477H76.9805C76.9805 79.9531 77.123 79.6698 77.5126 79.4147L76.4171 77.7415ZM74.9805 80.3477C74.9805 81.2914 75.3247 82.1226 76.019 82.7601L77.3716 81.2868C77.1128 81.0492 76.9805 80.7633 76.9805 80.3477H74.9805ZM76.025 82.7655C76.6325 83.3142 77.7763 83.9549 79.3133 84.6846L80.1711 82.8779C78.6144 82.1388 77.7269 81.6076 77.3656 81.2813L76.025 82.7655ZM79.3187 84.6871C81.0808 85.511 82.1597 86.2802 82.7024 86.9524L84.2585 85.696C83.4262 84.6651 82.0129 83.739 80.1657 82.8754L79.3187 84.6871ZM82.7052 86.9559C83.2454 87.6189 83.5117 88.3677 83.5117 89.2422H85.5117C85.5117 87.9135 85.0905 86.7171 84.2557 85.6925L82.7052 86.9559ZM83.5117 89.2422C83.5117 90.6062 83.0378 91.5412 82.1407 92.1963L83.3202 93.8115C84.7982 92.7322 85.5117 91.1594 85.5117 89.2422H83.5117ZM82.1407 92.1963C81.1839 92.8951 79.7743 93.3047 77.7969 93.3047V95.3047C80.0226 95.3047 81.9021 94.8471 83.3202 93.8115L82.1407 92.1963ZM77.7969 93.3047C77.1024 93.3047 76.3095 93.2203 75.4133 93.0425L75.0242 95.0043C76.0187 95.2016 76.9445 95.3047 77.7969 95.3047V93.3047ZM75.4133 93.0425C74.5218 92.8657 73.9266 92.6454 73.5632 92.4218L72.515 94.1251C73.1671 94.5264 74.0251 94.8062 75.0242 95.0043L75.4133 93.0425ZM74.0391 93.2734V90.2383H72.0391V93.2734H74.0391ZM102.277 94V95H103.277V94H102.277ZM99.4648 94H98.4648V95H99.4648V94ZM99.4648 86.0312H100.465V85.0312H99.4648V86.0312ZM90.7344 86.0312V85.0312H89.7344V86.0312H90.7344ZM90.7344 94V95H91.7344V94H90.7344ZM87.9219 94H86.9219V95H87.9219V94ZM87.9219 75.8477V74.8477H86.9219V75.8477H87.9219ZM90.7344 75.8477H91.7344V74.8477H90.7344V75.8477ZM90.7344 83.5586H89.7344V84.5586H90.7344V83.5586ZM99.4648 83.5586V84.5586H100.465V83.5586H99.4648ZM99.4648 75.8477V74.8477H98.4648V75.8477H99.4648ZM102.277 75.8477H103.277V74.8477H102.277V75.8477ZM102.277 93H99.4648V95H102.277V93ZM100.465 94V86.0312H98.4648V94H100.465ZM99.4648 85.0312H90.7344V87.0312H99.4648V85.0312ZM89.7344 86.0312V94H91.7344V86.0312H89.7344ZM90.7344 93H87.9219V95H90.7344V93ZM88.9219 94V75.8477H86.9219V94H88.9219ZM87.9219 76.8477H90.7344V74.8477H87.9219V76.8477ZM89.7344 75.8477V83.5586H91.7344V75.8477H89.7344ZM90.7344 84.5586H99.4648V82.5586H90.7344V84.5586ZM100.465 83.5586V75.8477H98.4648V83.5586H100.465ZM99.4648 76.8477H102.277V74.8477H99.4648V76.8477ZM101.277 75.8477V94H103.277V75.8477H101.277ZM108.066 78.2031L107.326 77.5311L107.326 77.5313L108.066 78.2031ZM120.676 91.6562L119.93 90.9898L120.676 91.6562ZM108.043 91.75L107.311 92.4315L107.313 92.4333L108.043 91.75ZM110.152 89.8984L109.367 90.5179L109.369 90.5202L110.152 89.8984ZM118.566 89.9922L119.337 90.63L119.339 90.6276L118.566 89.9922ZM118.613 79.9141L117.825 80.5297L117.828 80.5328L118.613 79.9141ZM106.664 85.1523C106.664 82.4805 107.405 80.4208 108.807 78.875L107.326 77.5313C105.525 79.5167 104.664 82.0899 104.664 85.1523H106.664ZM108.807 78.8751C110.2 77.3405 112.083 76.543 114.57 76.543V74.543C111.605 74.543 109.152 75.5188 107.326 77.5311L108.807 78.8751ZM114.57 76.543C116.875 76.543 118.643 77.3055 119.979 78.7901L121.466 77.4521C119.708 75.4992 117.375 74.543 114.57 74.543V76.543ZM119.979 78.7901C121.335 80.2958 122.043 82.2474 122.043 84.7305H124.043C124.043 81.8386 123.205 79.3839 121.466 77.4521L119.979 78.7901ZM122.043 84.7305C122.043 87.3889 121.312 89.4434 119.93 90.9898L121.421 92.3227C123.195 90.3379 124.043 87.7751 124.043 84.7305H122.043ZM119.93 90.9898C118.568 92.5134 116.723 93.3047 114.277 93.3047V95.3047C117.207 95.3047 119.627 94.3303 121.421 92.3227L119.93 90.9898ZM114.277 93.3047C111.961 93.3047 110.158 92.5467 108.773 91.0667L107.313 92.4333C109.115 94.3596 111.468 95.3047 114.277 95.3047V93.3047ZM108.775 91.0685C107.388 89.5796 106.664 87.6376 106.664 85.1523H104.664C104.664 88.0577 105.526 90.5142 107.311 92.4315L108.775 91.0685ZM107.617 84.9531C107.617 87.1291 108.177 89.0097 109.367 90.5179L110.937 89.2789C110.081 88.1934 109.617 86.7772 109.617 84.9531H107.617ZM109.369 90.5202C110.595 92.0639 112.274 92.832 114.301 92.832V90.832C112.843 90.832 111.757 90.3111 110.936 89.2766L109.369 90.5202ZM114.301 92.832C116.377 92.832 118.102 92.1214 119.337 90.63L117.796 89.3544C117 90.3161 115.88 90.832 114.301 90.832V92.832ZM119.339 90.6276C120.542 89.1652 121.09 87.2529 121.09 85H119.09C119.09 86.9346 118.622 88.3505 117.794 89.3568L119.339 90.6276ZM121.09 85C121.09 82.7121 120.563 80.774 119.399 79.2954L117.828 80.5328C118.632 81.5541 119.09 83.0066 119.09 85H121.09ZM119.401 79.2984C118.207 77.7692 116.5 77.0391 114.43 77.0391V79.0391C115.984 79.0391 117.067 79.559 117.825 80.5297L119.401 79.2984ZM114.43 77.0391C112.383 77.0391 110.68 77.8084 109.423 79.3534L110.975 80.6153C111.828 79.5666 112.946 79.0391 114.43 79.0391V77.0391ZM109.423 79.3534C108.195 80.8633 107.617 82.7567 107.617 84.9531H109.617C109.617 83.1183 110.094 81.6992 110.975 80.6153L109.423 79.3534ZM127.66 78.2031L126.92 77.5311L126.919 77.5313L127.66 78.2031ZM140.27 91.6562L139.524 90.9898L140.27 91.6562ZM127.637 91.75L126.905 92.4315L126.907 92.4333L127.637 91.75ZM129.746 89.8984L128.961 90.5179L128.963 90.5202L129.746 89.8984ZM138.16 89.9922L138.93 90.63L138.932 90.6276L138.16 89.9922ZM138.207 79.9141L137.419 80.5297L137.421 80.5328L138.207 79.9141ZM126.258 85.1523C126.258 82.4805 126.999 80.4208 128.401 78.875L126.919 77.5313C125.119 79.5167 124.258 82.0899 124.258 85.1523H126.258ZM128.401 78.8751C129.793 77.3405 131.676 76.543 134.164 76.543V74.543C131.199 74.543 128.746 75.5188 126.92 77.5311L128.401 78.8751ZM134.164 76.543C136.468 76.543 138.237 77.3055 139.573 78.7901L141.06 77.4521C139.302 75.4992 136.969 74.543 134.164 74.543V76.543ZM139.573 78.7901C140.928 80.2958 141.637 82.2474 141.637 84.7305H143.637C143.637 81.8386 142.798 79.3839 141.06 77.4521L139.573 78.7901ZM141.637 84.7305C141.637 87.3889 140.906 89.4434 139.524 90.9898L141.015 92.3227C142.789 90.3379 143.637 87.7751 143.637 84.7305H141.637ZM139.524 90.9898C138.162 92.5134 136.316 93.3047 133.871 93.3047V95.3047C136.801 95.3047 139.221 94.3303 141.015 92.3227L139.524 90.9898ZM133.871 93.3047C131.555 93.3047 129.752 92.5467 128.367 91.0667L126.907 92.4333C128.709 94.3596 131.062 95.3047 133.871 95.3047V93.3047ZM128.369 91.0685C126.982 89.5796 126.258 87.6376 126.258 85.1523H124.258C124.258 88.0577 125.119 90.5142 126.905 92.4315L128.369 91.0685ZM127.211 84.9531C127.211 87.1291 127.771 89.0097 128.961 90.5179L130.531 89.2789C129.674 88.1934 129.211 86.7772 129.211 84.9531H127.211ZM128.963 90.5202C130.189 92.0639 131.868 92.832 133.895 92.832V90.832C132.437 90.832 131.351 90.3111 130.529 89.2766L128.963 90.5202ZM133.895 92.832C135.971 92.832 137.695 92.1214 138.93 90.63L137.39 89.3544C136.594 90.3161 135.474 90.832 133.895 90.832V92.832ZM138.932 90.6276C140.136 89.1652 140.684 87.2529 140.684 85H138.684C138.684 86.9346 138.216 88.3505 137.388 89.3568L138.932 90.6276ZM140.684 85C140.684 82.7121 140.157 80.774 138.993 79.2954L137.421 80.5328C138.226 81.5541 138.684 83.0066 138.684 85H140.684ZM138.995 79.2984C137.8 77.7692 136.094 77.0391 134.023 77.0391V79.0391C135.578 79.0391 136.661 79.559 137.419 80.5297L138.995 79.2984ZM134.023 77.0391C131.976 77.0391 130.274 77.8084 129.017 79.3534L130.569 80.6153C131.422 79.5666 132.539 79.0391 134.023 79.0391V77.0391ZM129.017 79.3534C127.789 80.8633 127.211 82.7567 127.211 84.9531H129.211C129.211 83.1183 129.687 81.6992 130.569 80.6153L129.017 79.3534ZM145.18 90.2383L145.811 89.463L144.18 88.1339V90.2383H145.18ZM152.223 87.1797L151.678 88.0185L151.687 88.024L151.695 88.0293L152.223 87.1797ZM149.562 85.7969L149.131 86.6989L149.132 86.6996L149.562 85.7969ZM155.879 76.2109H156.879V75.5811L156.311 75.3091L155.879 76.2109ZM155.879 79.0938L155.31 79.9159L156.879 81.0023V79.0938H155.879ZM148.836 82.0234L148.16 82.7601L148.166 82.7655L148.836 82.0234ZM151.883 83.7812L151.454 84.6846L151.459 84.6871L151.883 83.7812ZM155.621 86.3242L154.843 86.9524L154.846 86.9559L155.621 86.3242ZM145.18 93.2734H144.18V93.8322L144.656 94.1251L145.18 93.2734ZM144.548 91.0136C146.126 92.2994 147.989 92.9375 150.09 92.9375V90.9375C148.425 90.9375 147.014 90.4428 145.811 89.463L144.548 91.0136ZM150.09 92.9375C151.376 92.9375 152.518 92.7229 153.362 92.1443C154.275 91.5192 154.699 90.5689 154.699 89.4648H152.699C152.699 90.0092 152.522 90.2953 152.232 90.4944C151.873 90.74 151.21 90.9375 150.09 90.9375V92.9375ZM154.699 89.4648C154.699 88.7895 154.507 88.1599 154.122 87.6057L152.479 88.7459C152.626 88.9572 152.699 89.1871 152.699 89.4648H154.699ZM154.122 87.6057C153.768 87.0955 153.303 86.673 152.75 86.33L151.695 88.0293C152.049 88.2489 152.302 88.4905 152.479 88.7459L154.122 87.6057ZM152.767 86.3409C152.259 86.0109 151.314 85.5239 149.993 84.8941L149.132 86.6996C150.467 87.3355 151.296 87.7704 151.678 88.0185L152.767 86.3409ZM149.994 84.8948C148.409 84.1366 147.428 83.422 146.919 82.7905L145.362 84.0454C146.15 85.0233 147.45 85.8947 149.131 86.6989L149.994 84.8948ZM146.919 82.7905C146.422 82.1731 146.168 81.4522 146.168 80.582H144.168C144.168 81.8837 144.563 83.0535 145.362 84.0454L146.919 82.7905ZM146.168 80.582C146.168 79.3305 146.639 78.4042 147.608 77.6991L146.431 76.0821C144.931 77.1739 144.168 78.7086 144.168 80.582H146.168ZM147.608 77.6991C148.632 76.9541 149.988 76.543 151.754 76.543V74.543C149.676 74.543 147.876 75.0302 146.431 76.0821L147.608 77.6991ZM151.754 76.543C153.522 76.543 154.719 76.764 155.447 77.1128L156.311 75.3091C155.18 74.7672 153.626 74.543 151.754 74.543V76.543ZM154.879 76.2109V79.0938H156.879V76.2109H154.879ZM156.448 78.2716C155.129 77.358 153.523 76.9336 151.695 76.9336V78.9336C153.211 78.9336 154.395 79.2826 155.31 79.9159L156.448 78.2716ZM151.695 76.9336C150.499 76.9336 149.426 77.1729 148.558 77.7415L149.653 79.4147C150.097 79.124 150.751 78.9336 151.695 78.9336V76.9336ZM148.558 77.7415C147.635 78.3458 147.121 79.2422 147.121 80.3477H149.121C149.121 79.9531 149.264 79.6698 149.653 79.4147L148.558 77.7415ZM147.121 80.3477C147.121 81.2914 147.465 82.1226 148.16 82.7601L149.512 81.2868C149.253 81.0492 149.121 80.7633 149.121 80.3477H147.121ZM148.166 82.7655C148.773 83.3142 149.917 83.9549 151.454 84.6846L152.312 82.8779C150.755 82.1388 149.867 81.6076 149.506 81.2813L148.166 82.7655ZM151.459 84.6871C153.221 85.511 154.3 86.2802 154.843 86.9524L156.399 85.696C155.567 84.6651 154.154 83.739 152.306 82.8754L151.459 84.6871ZM154.846 86.9559C155.386 87.6189 155.652 88.3677 155.652 89.2422H157.652C157.652 87.9135 157.231 86.7171 156.396 85.6925L154.846 86.9559ZM155.652 89.2422C155.652 90.6062 155.178 91.5412 154.281 92.1963L155.461 93.8115C156.939 92.7322 157.652 91.1594 157.652 89.2422H155.652ZM154.281 92.1963C153.324 92.8951 151.915 93.3047 149.938 93.3047V95.3047C152.163 95.3047 154.043 94.8471 155.461 93.8115L154.281 92.1963ZM149.938 93.3047C149.243 93.3047 148.45 93.2203 147.554 93.0425L147.165 95.0043C148.159 95.2016 149.085 95.3047 149.938 95.3047V93.3047ZM147.554 93.0425C146.662 92.8657 146.067 92.6454 145.704 92.4218L144.656 94.1251C145.308 94.5264 146.166 94.8062 147.165 95.0043L147.554 93.0425ZM146.18 93.2734V90.2383H144.18V93.2734H146.18ZM170.117 94V95H171.117V94H170.117ZM160.062 94H159.062V95H160.062V94ZM160.062 75.8477V74.8477H159.062V75.8477H160.062ZM169.707 75.8477H170.707V74.8477H169.707V75.8477ZM169.707 78.2617V79.2617H170.707V78.2617H169.707ZM162.875 78.2617V77.2617H161.875V78.2617H162.875ZM162.875 83.6055H161.875V84.6055H162.875V83.6055ZM169.215 83.6055H170.215V82.6055H169.215V83.6055ZM169.215 86.0078V87.0078H170.215V86.0078H169.215ZM162.875 86.0078V85.0078H161.875V86.0078H162.875ZM162.875 91.5859H161.875V92.5859H162.875V91.5859ZM170.117 91.5859H171.117V90.5859H170.117V91.5859ZM170.117 93H160.062V95H170.117V93ZM161.062 94V75.8477H159.062V94H161.062ZM160.062 76.8477H169.707V74.8477H160.062V76.8477ZM168.707 75.8477V78.2617H170.707V75.8477H168.707ZM169.707 77.2617H162.875V79.2617H169.707V77.2617ZM161.875 78.2617V83.6055H163.875V78.2617H161.875ZM162.875 84.6055H169.215V82.6055H162.875V84.6055ZM168.215 83.6055V86.0078H170.215V83.6055H168.215ZM169.215 85.0078H162.875V87.0078H169.215V85.0078ZM161.875 86.0078V91.5859H163.875V86.0078H161.875ZM162.875 92.5859H170.117V90.5859H162.875V92.5859ZM169.117 91.5859V94H171.117V91.5859H169.117ZM194.141 94V95H195.583L195.077 93.6493L194.141 94ZM191.047 94L190.106 94.3386L190.344 95H191.047V94ZM189.348 89.2773L190.289 88.9388L190.051 88.2773H189.348V89.2773ZM182.082 89.2773V88.2773H181.367L181.136 88.9534L182.082 89.2773ZM180.465 94V95H181.179L181.411 94.324L180.465 94ZM177.371 94L176.435 93.6472L175.925 95H177.371V94ZM184.215 75.8477V74.8477H183.523L183.279 75.4949L184.215 75.8477ZM187.344 75.8477L188.28 75.497L188.037 74.8477H187.344V75.8477ZM188.562 86.9453V87.9453H189.977L189.505 86.612L188.562 86.9453ZM186.031 79.7852L186.974 79.4518L186.971 79.4434L186.031 79.7852ZM185.75 78.4141L186.74 78.2726L186.617 77.4141H185.75V78.4141ZM185.668 78.4141V77.4141H184.79L184.676 78.2847L185.668 78.4141ZM185.375 79.7617L186.319 80.0927L186.319 80.0902L185.375 79.7617ZM182.855 86.9453L181.912 86.6143L181.445 87.9453H182.855V86.9453ZM194.141 93H191.047V95H194.141V93ZM191.988 93.6614L190.289 88.9388L188.407 89.6159L190.106 94.3386L191.988 93.6614ZM189.348 88.2773H182.082V90.2773H189.348V88.2773ZM181.136 88.9534L179.519 93.676L181.411 94.324L183.028 89.6013L181.136 88.9534ZM180.465 93H177.371V95H180.465V93ZM178.307 94.3528L185.151 76.2004L183.279 75.4949L176.435 93.6472L178.307 94.3528ZM184.215 76.8477H187.344V74.8477H184.215V76.8477ZM186.407 76.1983L193.204 94.3507L195.077 93.6493L188.28 75.497L186.407 76.1983ZM189.505 86.612L186.974 79.4519L185.088 80.1185L187.62 87.2786L189.505 86.612ZM186.971 79.4434C186.916 79.2934 186.834 78.9294 186.74 78.2726L184.76 78.5555C184.854 79.2112 184.959 79.7613 185.091 80.1269L186.971 79.4434ZM185.75 77.4141H185.668V79.4141H185.75V77.4141ZM184.676 78.2847C184.611 78.7822 184.526 79.1594 184.431 79.4332L186.319 80.0902C186.474 79.6453 186.584 79.124 186.66 78.5434L184.676 78.2847ZM184.431 79.4308L181.912 86.6143L183.799 87.2763L186.319 80.0927L184.431 79.4308ZM182.855 87.9453H188.562V85.9453H182.855V87.9453ZM209.258 93.2852L209.709 94.1775L210.258 93.9V93.2852H209.258ZM197.867 91.832L197.143 92.5219L197.147 92.5253L197.867 91.832ZM198.125 78.2969L197.403 77.6053L197.403 77.6054L198.125 78.2969ZM209.258 76.2695H210.258V75.6042L209.644 75.3472L209.258 76.2695ZM209.258 79.1172L208.769 79.9893L210.258 80.8248V79.1172H209.258ZM200.246 79.9961L200.981 80.6738L200.983 80.6716L200.246 79.9961ZM200.129 89.9688L199.385 90.6375L199.388 90.64L200.129 89.9688ZM209.258 90.625H210.258V88.8499L208.74 89.7697L209.258 90.625ZM208.806 92.3928C207.643 92.9812 206.119 93.3047 204.184 93.3047V95.3047C206.327 95.3047 208.185 94.9485 209.709 94.1775L208.806 92.3928ZM204.184 93.3047C201.787 93.3047 199.957 92.5617 198.588 91.1387L197.147 92.5253C198.949 94.3992 201.33 95.3047 204.184 95.3047V93.3047ZM198.591 91.1422C197.222 89.7056 196.5 87.786 196.5 85.2812H194.5C194.5 88.1984 195.356 90.6459 197.143 92.5219L198.591 91.1422ZM196.5 85.2812C196.5 82.6779 197.297 80.6079 198.847 78.9884L197.403 77.6054C195.453 79.6421 194.5 82.2284 194.5 85.2812H196.5ZM198.847 78.9884C200.399 77.368 202.391 76.543 204.91 76.543V74.543C201.898 74.543 199.367 75.5539 197.403 77.6053L198.847 78.9884ZM204.91 76.543C206.568 76.543 207.875 76.7746 208.871 77.1919L209.644 75.3472C208.328 74.7957 206.737 74.543 204.91 74.543V76.543ZM208.258 76.2695V79.1172H210.258V76.2695H208.258ZM209.747 78.245C208.308 77.4375 206.72 77.0391 205.004 77.0391V79.0391C206.398 79.0391 207.646 79.3593 208.769 79.9893L209.747 78.245ZM205.004 77.0391C202.783 77.0391 200.917 77.7837 199.509 79.3206L200.983 80.6716C201.966 79.5991 203.271 79.0391 205.004 79.0391V77.0391ZM199.511 79.3184C198.114 80.8342 197.453 82.792 197.453 85.0938H199.453C199.453 83.1923 199.988 81.7517 200.981 80.6738L199.511 79.3184ZM197.453 85.0938C197.453 87.296 198.071 89.1761 199.385 90.6375L200.872 89.3C199.952 88.277 199.453 86.9071 199.453 85.0938H197.453ZM199.388 90.64C200.727 92.1186 202.514 92.832 204.641 92.832V90.832C203.002 90.832 201.781 90.3033 200.87 89.2975L199.388 90.64ZM204.641 92.832C206.55 92.832 208.272 92.3912 209.776 91.4803L208.74 89.7697C207.587 90.4681 206.232 90.832 204.641 90.832V92.832ZM208.258 90.625V93.2852H210.258V90.625H208.258ZM224.211 78.2617V79.2617H225.211V78.2617H224.211ZM218.996 78.2617V77.2617H217.996V78.2617H218.996ZM218.996 94V95H219.996V94H218.996ZM216.172 94H215.172V95H216.172V94ZM216.172 78.2617H217.172V77.2617H216.172V78.2617ZM210.969 78.2617H209.969V79.2617H210.969V78.2617ZM210.969 75.8477V74.8477H209.969V75.8477H210.969ZM224.211 75.8477H225.211V74.8477H224.211V75.8477ZM224.211 77.2617H218.996V79.2617H224.211V77.2617ZM217.996 78.2617V94H219.996V78.2617H217.996ZM218.996 93H216.172V95H218.996V93ZM217.172 94V78.2617H215.172V94H217.172ZM216.172 77.2617H210.969V79.2617H216.172V77.2617ZM211.969 78.2617V75.8477H209.969V78.2617H211.969ZM210.969 76.8477H224.211V74.8477H210.969V76.8477ZM223.211 75.8477V78.2617H225.211V75.8477H223.211ZM229.73 94V95H230.73V94H229.73ZM226.918 94H225.918V95H226.918V94ZM226.918 75.8477V74.8477H225.918V75.8477H226.918ZM229.73 75.8477H230.73V74.8477H229.73V75.8477ZM228.73 78.1445V78.1562H230.73V78.1445H228.73ZM228.73 78.1562V91.6914H230.73V78.1562H228.73ZM228.73 91.6914V91.7031H230.73V91.6914H228.73ZM228.73 91.7031V94H230.73V91.7031H228.73ZM229.73 93H226.918V95H229.73V93ZM227.918 94V91.7031H225.918V94H227.918ZM227.918 91.7031V91.6914H225.918V91.7031H227.918ZM227.918 91.6914V78.1562H225.918V91.6914H227.918ZM227.918 78.1562V78.1445H225.918V78.1562H227.918ZM227.918 78.1445V75.8477H225.918V78.1445H227.918ZM226.918 76.8477H229.73V74.8477H226.918V76.8477ZM228.73 75.8477V78.1445H230.73V75.8477H228.73ZM235.52 78.2031L234.779 77.5311L234.779 77.5313L235.52 78.2031ZM248.129 91.6562L247.383 90.9898L248.129 91.6562ZM235.496 91.75L234.764 92.4315L234.766 92.4333L235.496 91.75ZM237.605 89.8984L236.82 90.5179L236.822 90.5202L237.605 89.8984ZM246.02 89.9922L246.79 90.63L246.792 90.6276L246.02 89.9922ZM246.066 79.9141L245.278 80.5297L245.281 80.5328L246.066 79.9141ZM234.117 85.1523C234.117 82.4805 234.858 80.4208 236.26 78.875L234.779 77.5313C232.978 79.5167 232.117 82.0899 232.117 85.1523H234.117ZM236.26 78.8751C237.653 77.3405 239.536 76.543 242.023 76.543V74.543C239.058 74.543 236.605 75.5188 234.779 77.5311L236.26 78.8751ZM242.023 76.543C244.328 76.543 246.096 77.3055 247.432 78.7901L248.919 77.4521C247.161 75.4992 244.828 74.543 242.023 74.543V76.543ZM247.432 78.7901C248.788 80.2958 249.496 82.2474 249.496 84.7305H251.496C251.496 81.8386 250.658 79.3839 248.919 77.4521L247.432 78.7901ZM249.496 84.7305C249.496 87.3889 248.766 89.4434 247.383 90.9898L248.874 92.3227C250.649 90.3379 251.496 87.7751 251.496 84.7305H249.496ZM247.383 90.9898C246.022 92.5134 244.176 93.3047 241.73 93.3047V95.3047C244.66 95.3047 247.08 94.3303 248.874 92.3227L247.383 90.9898ZM241.73 93.3047C239.414 93.3047 237.611 92.5467 236.226 91.0667L234.766 92.4333C236.569 94.3596 238.922 95.3047 241.73 95.3047V93.3047ZM236.228 91.0685C234.841 89.5796 234.117 87.6376 234.117 85.1523H232.117C232.117 88.0577 232.979 90.5142 234.764 92.4315L236.228 91.0685ZM235.07 84.9531C235.07 87.1291 235.63 89.0097 236.82 90.5179L238.39 89.2789C237.534 88.1934 237.07 86.7772 237.07 84.9531H235.07ZM236.822 90.5202C238.048 92.0639 239.727 92.832 241.754 92.832V90.832C240.296 90.832 239.21 90.3111 238.389 89.2766L236.822 90.5202ZM241.754 92.832C243.831 92.832 245.555 92.1214 246.79 90.63L245.249 89.3544C244.453 90.3161 243.334 90.832 241.754 90.832V92.832ZM246.792 90.6276C247.995 89.1652 248.543 87.2529 248.543 85H246.543C246.543 86.9346 246.075 88.3505 245.247 89.3568L246.792 90.6276ZM248.543 85C248.543 82.7121 248.016 80.774 246.852 79.2954L245.281 80.5328C246.085 81.5541 246.543 83.0066 246.543 85H248.543ZM246.854 79.2984C245.66 77.7692 243.953 77.0391 241.883 77.0391V79.0391C243.437 79.0391 244.52 79.559 245.278 80.5297L246.854 79.2984ZM241.883 77.0391C239.836 77.0391 238.133 77.8084 236.877 79.3534L238.428 80.6153C239.281 79.5666 240.399 79.0391 241.883 79.0391V77.0391ZM236.877 79.3534C235.649 80.8633 235.07 82.7567 235.07 84.9531H237.07C237.07 83.1183 237.547 81.6992 238.428 80.6153L236.877 79.3534ZM269.105 94V95H270.105V94H269.105ZM265.965 94L265.126 94.5443L265.422 95H265.965V94ZM257.281 80.6172L258.12 80.0729L258.119 80.0717L257.281 80.6172ZM256.578 79.3398L257.502 78.9581L257.247 78.3398H256.578V79.3398ZM256.508 79.3398V78.3398H255.347L255.519 79.4882L256.508 79.3398ZM256.613 94V95H257.613V94H256.613ZM253.883 94H252.883V95H253.883V94ZM253.883 75.8477V74.8477H252.883V75.8477H253.883ZM257.211 75.8477L258.052 75.3074L257.757 74.8477H257.211V75.8477ZM265.637 88.9727L266.48 88.4351L266.478 88.4324L265.637 88.9727ZM266.434 90.2734L265.557 90.7543L265.841 91.2734H266.434V90.2734ZM266.492 90.2734V91.2734H267.657L267.481 90.1224L266.492 90.2734ZM266.363 75.8477V74.8477H265.363V75.8477H266.363ZM269.105 75.8477H270.105V74.8477H269.105V75.8477ZM269.105 93H265.965V95H269.105V93ZM266.804 93.4557L258.12 80.0729L256.442 81.1615L265.126 94.5443L266.804 93.4557ZM258.119 80.0717C257.818 79.608 257.619 79.2394 257.502 78.9581L255.654 79.7216C255.835 80.1591 256.104 80.642 256.443 81.1626L258.119 80.0717ZM256.578 78.3398H256.508V80.3398H256.578V78.3398ZM255.519 79.4882C255.577 79.8727 255.613 80.684 255.613 81.9883H257.613C257.613 80.6988 257.58 79.7445 257.497 79.1915L255.519 79.4882ZM255.613 81.9883V94H257.613V81.9883H255.613ZM256.613 93H253.883V95H256.613V93ZM254.883 94V75.8477H252.883V94H254.883ZM253.883 76.8477H257.211V74.8477H253.883V76.8477ZM256.369 76.3879L264.795 89.5129L266.478 88.4324L258.052 75.3074L256.369 76.3879ZM264.793 89.5102C265.193 90.1375 265.442 90.545 265.557 90.7543L267.31 89.7926C267.16 89.5175 266.877 89.0578 266.48 88.4351L264.793 89.5102ZM266.434 91.2734H266.492V89.2734H266.434V91.2734ZM267.481 90.1224C267.407 89.6386 267.363 88.8344 267.363 87.6719H265.363C265.363 88.8531 265.406 89.7832 265.504 90.4245L267.481 90.1224ZM267.363 87.6719V75.8477H265.363V87.6719H267.363ZM266.363 76.8477H269.105V74.8477H266.363V76.8477ZM268.105 75.8477V94H270.105V75.8477H268.105Z" fill="#FFECAA"/>
<ellipse cx="298.5" cy="47.5" rx="21.5" ry="22.5" fill="white"/>
</g>
<defs>
<filter id="filter0_d" x="0" y="0" width="324.094" height="210" filterUnits="userSpaceOnUse" color-interpolation-filters="sRGB">
<feFlood flood-opacity="0" result="BackgroundImageFix"/>
<feColorMatrix in="SourceAlpha" type="matrix" values="0 0 0 0 0 0 0 0 0 0 0 0 0 0 0 0 0 0 127 0"/>
<feOffset dy="4"/>
<feGaussianBlur stdDeviation="2"/>
<feColorMatrix type="matrix" values="0 0 0 0 0 0 0 0 0 0 0 0 0 0 0 0 0 0 0.25 0"/>
<feBlend mode="normal" in2="BackgroundImageFix" result="effect1_dropShadow"/>
<feBlend mode="normal" in="SourceGraphic" in2="effect1_dropShadow" result="shape"/>
</filter>
</defs>
</svg>
